<svg width="1920" height="1080" viewBox="0 0 1920 1080" fill="none" xmlns="http://www.w3.org/2000/svg">
<g clip-path="url(#clip0_2_15)">
<rect width="1920" height="1080" fill="#DEF2F2"/>
<path d="M798.086 862.606L751.69 833.773C730.671 820.71 708.752 809.155 686.098 799.195L601.172 761.855C576.49 777.838 546.035 782.18 517.87 773.733L349.352 723.194C266.289 698.283 177.733 698.355 94.7114 723.404L-357.798 859.927C-379.022 866.331 -398.637 877.185 -415.336 891.767C-522.627 985.457 -458.518 1162.11 -316.111 1165.18L1370.73 1201.58C1515.67 1204.71 1539.17 995.085 1397.14 966.036C1366.87 959.845 1340.2 942.125 1322.76 916.624L1290.63 869.643L983.214 790.237C965.631 838.737 920.684 871.968 869.16 874.563L848.407 875.608C830.701 876.5 813.144 871.964 798.086 862.606Z" fill="#CCCCCC"/>
<path d="M798.086 862.606L751.69 833.773C730.671 820.71 708.752 809.155 686.098 799.195L601.172 761.855C576.49 777.838 546.035 782.18 517.87 773.733L349.352 723.194C266.289 698.283 177.733 698.355 94.7114 723.404L-357.798 859.927C-379.022 866.331 -398.637 877.185 -415.336 891.767C-522.627 985.457 -458.518 1162.11 -316.111 1165.18L1370.73 1201.58C1515.67 1204.71 1539.17 995.085 1397.14 966.036C1366.87 959.845 1340.2 942.125 1322.76 916.624L1290.63 869.643L983.214 790.237C965.631 838.737 920.684 871.968 869.16 874.563L848.407 875.608C830.701 876.5 813.144 871.964 798.086 862.606Z" fill="#333333" fill-opacity="0.1"/>
<mask id="mask0_2_15" style="mask-type:alpha" maskUnits="userSpaceOnUse" x="-470" y="704" width="1963" height="498">
<path d="M798.086 862.606L751.69 833.773C730.671 820.71 708.752 809.155 686.098 799.195L601.172 761.855C576.49 777.838 546.035 782.18 517.87 773.733L349.352 723.194C266.289 698.283 177.733 698.355 94.7114 723.404L-357.798 859.927C-379.022 866.331 -398.637 877.185 -415.336 891.767C-522.627 985.457 -458.518 1162.11 -316.111 1165.18L1370.73 1201.58C1515.67 1204.71 1539.17 995.085 1397.14 966.036C1366.87 959.845 1340.2 942.125 1322.76 916.624L1290.63 869.643L983.214 790.237C965.631 838.737 920.684 871.968 869.16 874.563L848.407 875.608C830.701 876.5 813.144 871.964 798.086 862.606Z" fill="#CCCCCC"/>
</mask>
<g mask="url(#mask0_2_15)">
<path d="M776.5 848L717.552 818.748C712.538 816.26 707.21 814.516 701.828 812.978C666.242 802.808 620.937 773.555 601 761.5L696 793L776.5 848Z" fill="#E6E6E6"/>
<path d="M880.847 898.663C955.151 885.269 984.171 788.323 984.171 788.323L849.914 879.529L861.34 880.026C871.594 880.472 879.935 888.44 880.847 898.663Z" fill="#333333" fill-opacity="0.8"/>
<path d="M1283.3 879.848C1186.35 844.344 984.681 786.219 981.62 784.178C1084.52 809.371 1291.21 860.14 1294.78 861.671C1298.35 863.201 1435.52 964.144 1503.66 1014.42H1452.95C1448.6 1008.36 1449.13 1001.67 1436.69 992.739C1407.44 971.741 1390.45 970.097 1369.72 965.313C1359.84 963.032 1372.27 978.707 1372.27 978.707C1372.27 978.707 1352.37 961.904 1347.72 958.935C1332.73 949.368 1325.71 927.045 1283.3 879.848Z" fill="#E6E6E6"/>
<path d="M1286.81 875.383L1157.01 834.564L1296.69 866.454L1329.22 926.088L1286.81 875.383Z" fill="#FFDE00"/>
<path d="M1288.72 873.151L1157.01 834.564L1296.69 866.454L1329.22 926.088L1288.72 873.151Z" fill="white"/>
<path d="M153.5 730.5C148.036 717.181 236.833 711.5 273.5 706H134.5L-37 729L-60.5 1119L152.256 1140.38C153.077 1140.46 153.905 1140.37 154.691 1140.12C253.575 1108.7 292.135 989.282 230.297 905.968L201.635 867.352C170.402 825.272 94.9995 785.293 136.197 752.905L136.557 752.622C146.723 744.631 156.231 737.158 153.5 730.5Z" fill="#333333" fill-opacity="0.3"/>
<path d="M579 783C565.5 783.5 562.2 780.4 561 780L598.5 757L631.5 817C618.167 799.667 605.5 796.6 595.5 793C585.5 789.4 593.49 782.463 579 783Z" fill="#333333" fill-opacity="0.6"/>
</g>
<path d="M1645.57 1012.77L1628.35 1179.5L1369.4 1182.96L-33.1602 1197.15L-85.791 1012.77H1645.57Z" fill="#E6E6E6"/>
<path d="M1456.46 1183.12L1514.82 1012.83H1452C1459.48 1030.99 1451.32 1051.82 1433.49 1060.07L1385.94 1082.05C1374.3 1087.43 1366.85 1099.09 1366.85 1111.91C1366.85 1138.25 1349.1 1161.28 1323.63 1167.98L1266.08 1183.12H1456.46Z" fill="white"/>
<path d="M1468.92 1012.83H2163.15V1183.76H1438.28C1422.38 1149.42 1430.91 1108.71 1459.26 1083.64L1464.04 1079.41C1481.94 1063.58 1485.28 1036.9 1471.85 1017.14L1468.92 1012.83Z" fill="#69BCC1"/>
</g>
<defs>
<clipPath id="clip0_2_15">
<rect width="1920" height="1080" fill="white"/>
</clipPath>
</defs>
</svg>
