<svg width="126" height="48" viewBox="0 0 126 48" fill="none" xmlns="http://www.w3.org/2000/svg">
<path d="M39.7799 19.7589L30.1851 18.7708C28.9706 18.6457 27.7443 18.6966 26.5443 18.9219C16.7333 20.7641 7.92434 26.1044 1.75345 33.951L0.824561 35.1321C0.599533 35.4182 0.806902 35.8374 1.17088 35.8322L8.33678 35.7291C12.2229 35.6732 16.091 36.2671 19.7814 37.4861C29.5396 40.7097 39.7477 42.3637 50.0245 42.3863L50.4479 42.3872L109.951 39.108C110.894 39.056 111.083 37.7462 110.193 37.4305L105.323 35.7021C104.991 35.5841 105.075 35.0923 105.428 35.0916L117.399 35.0695C120.837 35.0631 123.972 33.1001 125.479 30.0096L96.7372 24.4469C81.9987 21.5943 67.0336 20.0725 52.0226 19.8997L39.7799 19.7589Z" fill="black"/>
<path d="M44.9444 26.4812L85.89 25.5921C86.0049 25.5896 86.1162 25.5512 86.2082 25.4821L93.1919 20.2398C93.6144 19.9227 93.3904 19.2503 92.8622 19.2499L91.0782 19.2484C90.5394 19.248 90.3225 18.5535 90.7652 18.2465L99.503 12.1868C99.9457 11.8798 99.7287 11.1853 99.19 11.1848L94.2907 11.1808C93.7242 11.1803 93.5283 10.4272 94.0227 10.1507L110.062 1.18052C110.474 0.950477 110.253 0.32157 109.788 0.399392L78.6862 5.60653C65.1663 7.87008 53.035 15.2471 44.805 26.2098C44.7201 26.323 44.8029 26.4843 44.9444 26.4812Z" fill="black"/>
</svg>
