<svg width="126" height="46" viewBox="0 0 126 46" fill="none" xmlns="http://www.w3.org/2000/svg">
<path d="M39.7799 3.91462L30.1851 2.92653C28.9706 2.80145 27.7443 2.85236 26.5443 3.07767C16.7333 4.91981 7.92434 10.2601 1.75345 18.1067L0.824561 19.2879C0.599533 19.574 0.806902 19.9932 1.17088 19.988L8.33678 19.8849C12.2229 19.829 16.091 20.4228 19.7814 21.6419C29.5396 24.8655 39.7477 26.5194 50.0245 26.5421L50.4479 26.543L109.951 23.2637C110.894 23.2118 111.083 21.902 110.193 21.5862L105.323 19.8578C104.991 19.7399 105.075 19.248 105.428 19.2474L117.399 19.2253C120.837 19.2189 123.972 17.2559 125.479 14.1654L96.7372 8.60263C81.9987 5.75008 67.0336 4.22824 52.0226 4.0555L39.7799 3.91462Z" fill="black"/>
<path d="M40.7598 18.6059L81.7054 19.495C81.8204 19.4975 81.9317 19.536 82.0236 19.605L89.0074 24.8474C89.4298 25.1645 89.2059 25.8368 88.6776 25.8373L86.8936 25.8387C86.3549 25.8392 86.1379 26.5337 86.5806 26.8407L95.3184 32.9004C95.7611 33.2074 95.5442 33.9019 95.0054 33.9023L90.1061 33.9064C89.5397 33.9069 89.3437 34.6599 89.8381 34.9364L105.878 43.9066C106.289 44.1367 106.068 44.7656 105.603 44.6878L74.5016 39.4806C60.9817 37.2171 48.8504 29.84 40.6205 18.8774C40.5355 18.7642 40.6183 18.6029 40.7598 18.6059Z" fill="black"/>
</svg>
